<?xml version="1.0" encoding="UTF-8"?>
<svg id="Layer_2" data-name="Layer 2" xmlns="http://www.w3.org/2000/svg" viewBox="0 0 149.26 139.55">
  <defs>
    <style>
      .cls-1 {
        fill: #4da4ff;
      }
    </style>
  </defs>
  <g id="Logos">
    <g>
      <path class="cls-1" d="M4.14.11l41.67,10.9c2.33.61,3.95,2.71,3.95,5.11v17.26c0,2.16-2.05,3.74-4.14,3.19L3.95,25.67C1.62,25.07,0,22.96,0,20.56V3.3C0,1.14,2.04-.44,4.14.11Z"/>
      <path class="cls-1" d="M4.14,64.35l40.65,10.63c2.51.66,4.97-1.24,4.97-3.83v-16.4c0-2.4,1.62-4.5,3.95-5.11l30.25-7.91,7.66-2.01c4.65-1.22,7.89-5.42,7.89-10.22v-7.62s0-5.76,0-5.76c0-2.4,1.62-4.5,3.95-5.11L145.12.11c2.09-.55,4.14,1.03,4.14,3.19v17.26c0,2.4-1.62,4.5-3.95,5.11l-32.9,8.61h0l-5.01,1.31c-4.65,1.22-7.89,5.42-7.89,10.22v5.78s0,7.59,0,7.59c0,2.4-1.62,4.5-3.95,5.11l-18.2,4.76h0l-18.25,4.77-1.46.38c-4.65,1.22-7.89,5.42-7.89,10.22v9.3c0,4.81,3.24,9.01,7.89,10.22l37.91,9.92c2.33.61,3.95,2.71,3.95,5.11v17.26c0,2.16-2.05,3.74-4.14,3.2l-41.67-10.9c-2.33-.61-3.95-2.71-3.95-5.11v-7.59s0-5.78,0-5.78c0-4.81-3.24-9.01-7.89-10.22l-1.87-.49-3.14-.82h0L3.95,89.92c-2.33-.61-3.95-2.71-3.95-5.11v-17.26c0-2.16,2.04-3.74,4.14-3.2Z"/>
      <path class="cls-1" d="M99.5,80.36c0-2.4,1.62-4.5,3.95-5.11l41.67-10.9c2.09-.55,4.14,1.03,4.14,3.2v17.26c0,2.4-1.62,4.5-3.95,5.11l-41.67,10.9c-2.09.55-4.14-1.03-4.14-3.19v-17.26Z"/>
    </g>
  </g>
</svg>